<?xml version="1.0" standalone="no"?>
<!DOCTYPE svg PUBLIC "-//W3C//DTD SVG 20010904//EN"
 "http://www.w3.org/TR/2001/REC-SVG-20010904/DTD/svg10.dtd">
<svg version="1.0" xmlns="http://www.w3.org/2000/svg"
 width="500.000000pt" height="500.000000pt" viewBox="0 0 500.000000 500.000000"
 preserveAspectRatio="xMidYMid meet">

<g transform="translate(0.000000,500.000000) scale(0.100000,-0.100000)"
fill="#fff" stroke="none">
<path d="M1635 2911 c-103 -48 -145 -157 -92 -243 28 -47 57 -69 141 -109 37
-18 74 -42 82 -53 28 -43 -10 -86 -76 -86 -30 0 -102 28 -135 53 -18 14 -21
12 -52 -40 -18 -29 -33 -59 -33 -64 0 -6 29 -24 66 -41 116 -54 259 -48 331
15 l35 31 -16 -37 -15 -37 80 0 c74 0 79 1 79 21 0 11 -8 33 -18 47 -23 33
-42 87 -42 120 l0 24 28 -18 c24 -17 44 -19 175 -16 l148 2 30 -29 c37 -38 37
-57 -1 -64 -39 -8 -30 -37 11 -37 24 0 29 -4 29 -25 0 -24 3 -25 54 -25 l54 0
-21 58 c-11 31 -66 170 -122 307 l-101 250 -66 3 -65 3 -94 -232 c-59 -146
-95 -223 -97 -208 -10 85 -46 126 -166 186 -97 49 -106 56 -106 90 0 45 82 57
156 24 l41 -19 27 55 c25 52 26 56 9 68 -27 20 -124 45 -174 45 -24 0 -62 -9
-84 -19z m589 -274 c14 -37 26 -72 26 -77 0 -6 -29 -10 -66 -10 -59 0 -65 2
-59 18 4 9 18 48 32 85 14 38 29 65 33 60 4 -4 19 -38 34 -76z"/>
<path d="M2790 2678 l1 -243 34 -34 c19 -19 40 -50 46 -68 l11 -33 129 0 129
0 0 60 0 60 -105 0 -105 0 0 250 0 250 -70 0 -70 0 0 -242z"/>
<path d="M3110 2860 l0 -59 73 -3 72 -3 3 -247 2 -248 70 0 70 0 0 250 0 250
70 0 70 0 0 60 0 60 -215 0 -215 0 0 -60z"/>
<path d="M2420 2256 l0 -36 190 0 190 0 0 30 0 29 -132 -1 c-73 0 -159 3 -190
7 l-58 7 0 -36z"/>
</g>
</svg>
